<svg width="32" height="32" viewBox="0 0 32 32" fill="none" xmlns="http://www.w3.org/2000/svg">
<g clip-path="url(#clip0)">
<rect width="32" height="32" fill="white"/>
<path d="M1.0161 16.266L0.907102 16.214C0.667102 16.079 0.480102 15.881 0.350102 15.625C0.162102 15.281 0.0791016 14.958 0.0791016 14.625L0.105102 14.453C0.105102 14.187 0.173102 13.948 0.293102 13.719L0.402102 13.521C0.454102 13.412 0.532102 13.318 0.600102 13.229C0.683102 13.135 0.694102 13.015 0.668102 12.906L0.600102 12.692C0.522102 12.426 0.470102 12.161 0.470102 11.895L0.428102 11.734C0.428102 11.437 0.506102 11.145 0.694102 10.932L0.829102 10.76C0.923102 10.625 1.0691 10.546 1.2301 10.494C1.3601 10.452 1.4541 10.317 1.4701 10.161L1.4961 9.70797C1.4961 9.34897 1.6681 9.01497 1.9341 8.76997L2.2571 8.52997C2.3201 8.46697 2.3871 8.39997 2.4391 8.28997C2.5071 8.21197 2.5221 8.10197 2.5071 8.02397C2.4811 7.89397 2.5071 7.85197 2.5751 7.83597C2.7891 7.91897 2.9241 7.89297 3.0181 7.78397L3.1901 7.55997L3.6691 7.02397C3.8041 6.89397 3.8571 6.64897 3.7731 6.46697L3.6171 6.11797C3.5911 6.03997 3.6171 5.94597 3.6851 5.91997C3.8571 5.91997 3.9771 5.98297 4.0291 6.09197L4.0811 6.18597C4.1641 6.34697 4.3521 6.42597 4.4821 6.35797C4.7741 6.25397 5.0181 6.22797 5.2421 6.22797H5.6691C5.9611 6.22797 6.2001 6.02497 6.2581 5.71797C6.3101 5.34797 6.4401 5.05097 6.6281 4.85297C6.8311 4.62397 7.0551 4.45197 7.3211 4.31697C7.6701 4.13497 7.8841 3.86397 7.9511 3.51997C8.0451 3.09297 8.2691 2.78597 8.5761 2.58797L9.5921 2.01497L9.8841 1.83797C10.0561 1.73397 10.2171 1.59797 10.3531 1.43697L10.6191 1.11897C10.7491 0.983972 10.8851 0.894972 11.0461 0.852972C11.1761 0.810972 11.3641 0.784972 11.5251 0.800972L12.0561 0.836972C12.3221 0.836972 12.5351 0.904972 12.7491 0.997972L12.8841 1.06597C13.0191 1.11797 13.1501 1.09197 13.2171 0.997972L13.3371 0.929972L13.9101 0.330972C14.0451 0.195972 14.2021 0.142972 14.3791 0.169972C14.5511 0.195972 14.7231 0.263972 14.8841 0.346972C15.1241 0.476972 15.3221 0.528972 15.5511 0.528972H15.6861C15.9781 0.528972 16.2691 0.570972 16.5661 0.637972L16.7641 0.689972C16.9621 0.741972 17.1651 0.663972 17.2951 0.501972C17.3371 0.433972 17.4301 0.423972 17.4831 0.475972C17.5251 0.501972 17.5351 0.527972 17.5511 0.569972C17.5771 0.835972 17.7391 1.03897 17.9521 1.10097L18.1661 1.16897C18.3901 1.23697 18.5931 1.38297 18.7231 1.56997C18.8581 1.76797 19.0201 1.97097 19.2021 2.10097L19.3371 2.23597C19.4721 2.37097 19.6551 2.42397 19.8421 2.40797H20.6281C20.9511 2.40797 21.2581 2.46497 21.5661 2.59597C21.8581 2.73097 22.1651 2.75697 22.4411 2.64797C22.7381 2.55897 23.0451 2.51797 23.3521 2.55897L23.9251 2.64797C24.1911 2.67897 24.4561 2.80897 24.6181 3.01297L24.6861 3.07597C24.8161 3.21097 24.9521 3.38297 25.0821 3.57097C25.1651 3.74297 25.3531 3.83697 25.5351 3.83697H26.3631C26.5661 3.83697 26.7641 3.87897 26.9261 3.97197C27.0981 4.10197 27.2441 4.23797 27.3791 4.37297L27.5091 4.54497C27.6701 4.73297 27.7491 4.98297 27.7381 5.25297C27.7381 5.46697 27.8991 5.64897 28.1081 5.64897L28.3791 5.67997C28.5671 5.67997 28.7231 5.80997 28.8171 5.98197L28.9521 6.25297L29.2961 7.02397C29.3531 7.15897 29.3641 7.28997 29.3531 7.39897C29.3531 7.52897 29.3891 7.63897 29.4831 7.69097L29.6181 7.78497C29.7901 7.91997 29.8841 8.11797 29.8581 8.34797L29.7641 8.97297L29.7381 9.23897C29.7121 9.37397 29.7741 9.54597 29.8991 9.63997C30.0971 9.76997 30.1911 9.94697 30.2011 10.145V10.411C30.2011 10.546 30.1751 10.708 30.0711 10.812C29.9881 10.921 29.9361 11.052 29.9361 11.213L29.9781 11.52C29.9781 11.734 30.1081 11.921 30.2441 12.051C30.4321 12.186 30.5361 12.4 30.5671 12.614C30.6191 12.947 30.6301 13.213 30.6301 13.479V13.786C30.6301 13.895 30.6301 14 30.6721 14.104C30.6981 14.198 30.7661 14.292 30.8441 14.349L31.1101 14.547C31.3811 14.719 31.5681 14.948 31.6731 15.255C31.8081 15.547 31.8451 15.854 31.8451 16.161V16.265C31.8451 16.505 31.8191 16.76 31.7411 16.984C31.6731 17.229 31.6891 17.453 31.7771 17.651C31.8861 17.839 31.9541 18.052 31.9801 18.281C32.0321 18.547 32.0061 18.812 31.9121 19.026L31.8861 19.12C31.8181 19.281 31.7141 19.427 31.5791 19.547C31.4441 19.682 31.3131 19.761 31.2351 19.854C31.1521 19.932 31.1001 20.068 31.1411 20.187L31.1771 20.375C31.2451 20.641 31.2451 20.906 31.1771 21.146V21.255C31.1251 21.453 31.0471 21.625 30.9631 21.786C30.8691 21.958 30.7391 22.093 30.5671 22.187L30.3641 22.317C30.2701 22.374 30.2031 22.494 30.2031 22.614C30.2031 22.744 30.1511 22.88 30.0731 22.958L29.8701 23.229C29.7401 23.401 29.5681 23.547 29.3801 23.625C29.1921 23.76 29.0311 23.896 28.9111 24.026C28.7761 24.187 28.6711 24.375 28.6191 24.562C28.5671 24.802 28.3791 24.932 28.1761 24.932H27.4571C27.2691 24.932 27.0981 25.067 27.0191 25.229C26.9251 25.437 26.8311 25.588 26.7121 25.719C26.5771 25.854 26.4981 26.016 26.4411 26.198C26.4151 26.359 26.2851 26.469 26.1491 26.412C25.9771 26.334 25.8051 26.412 25.7221 26.547C25.5661 26.813 25.4041 27.016 25.2321 27.188L25.1381 27.266C24.9611 27.401 24.7371 27.506 24.5341 27.506C24.2941 27.506 24.1751 27.615 24.1381 27.772C24.0961 27.907 24.0701 28.079 24.0551 28.23C24.0291 28.386 23.9771 28.532 23.9251 28.668L23.8571 28.746C23.7221 28.949 23.6171 29.147 23.4821 29.319L23.4301 29.402C23.2581 29.626 23.0291 29.803 22.7631 29.866C22.4401 29.975 22.1641 30.001 21.8831 30.001H21.6951C21.5651 30.001 21.4291 30.079 21.3361 30.215L21.2581 30.35L21.1751 30.506L21.0031 30.803C20.8681 31.043 20.6701 31.199 20.4041 31.282C20.1381 31.35 19.8311 31.376 19.5501 31.36L19.3361 31.334C19.1481 31.334 18.9771 31.282 18.8051 31.199C18.6701 31.147 18.4821 31.199 18.4041 31.334C18.2691 31.522 18.1071 31.626 17.9351 31.683L17.5341 31.813C17.2681 31.881 16.9771 31.881 16.6951 31.813L16.4811 31.745C16.3511 31.745 16.2151 31.682 16.1061 31.615C15.9761 31.547 15.8401 31.521 15.7101 31.532L15.5331 31.563C15.2671 31.589 15.0281 31.563 14.7881 31.495L14.4291 31.412C14.2681 31.36 14.1221 31.256 14.0281 31.105C13.9601 30.975 13.8141 30.865 13.6271 30.839H13.2001C12.9341 30.803 12.6951 30.709 12.5331 30.506L12.0021 30.001L11.8141 29.84L11.5221 29.626L11.3501 29.496C11.1471 29.361 10.9071 29.256 10.6521 29.23L9.8551 29.095C9.7721 29.095 9.7201 29.069 9.6411 29.053L9.3341 28.985C9.1991 28.959 9.0681 28.855 8.9751 28.719C8.8971 28.589 8.7461 28.531 8.6161 28.589C8.3501 28.693 8.1371 28.719 7.9231 28.761H7.7351C7.3861 28.787 7.0681 28.735 6.7451 28.589C6.4271 28.454 6.2141 28.256 6.0161 28C5.8551 27.771 5.6151 27.599 5.3181 27.547L4.9481 27.469C4.6821 27.412 4.4121 27.308 4.1721 27.146C3.9061 26.958 3.7711 26.787 3.6671 26.573C3.5631 26.375 3.4951 26.146 3.4791 25.906V25.802C3.4531 25.531 3.2651 25.292 3.0151 25.229C2.7081 25.135 2.4791 25 2.2811 24.828C2.0931 24.651 1.9841 24.401 1.9841 24.135L2.0151 23.546C2.0151 23.317 1.9471 23.119 1.7861 22.973C1.6251 22.812 1.5201 22.614 1.5201 22.4L1.4781 21.921C1.4521 21.572 1.3841 21.228 1.3061 20.879C1.2281 20.572 1.3481 20.264 1.5981 20.119L1.6921 20.051C1.8271 19.957 1.8801 19.785 1.8011 19.624L1.6921 19.494C1.5621 19.359 1.4261 19.265 1.2911 19.228C1.1871 19.197 1.1611 19.093 1.1611 19.025L1.2911 18.864C1.3741 18.77 1.3591 18.624 1.2911 18.546C1.1871 18.437 1.1351 18.306 1.1191 18.171L1.0931 17.239C1.0931 17.051 1.1191 16.864 1.1711 16.682C1.2281 16.521 1.1711 16.333 1.0151 16.255L1.0161 16.266ZM14.2141 14.505C14.3081 14.411 14.2921 14.239 14.2141 14.172C14.0791 14.068 13.9851 13.948 13.9071 13.813L13.7721 13.599C13.6831 13.427 13.5641 13.281 13.4281 13.146L13.4021 13.12C13.2671 13.016 13.1731 12.88 13.0951 12.719C13.0271 12.589 13.0271 12.453 13.0951 12.318L13.1731 12.188C13.2561 12.053 13.3081 11.865 13.3081 11.709V11.652C13.3081 11.522 13.2561 11.386 13.1731 11.256C13.1211 11.147 13.0691 11.016 13.0431 10.881V10.803C13.0011 10.642 13.0431 10.47 13.1471 10.334C13.2561 10.162 13.3351 10.001 13.3761 9.80297V9.77197C13.4281 9.64197 13.4021 9.46997 13.3191 9.33397C13.2411 9.19897 13.2151 9.06797 13.2671 8.90697L13.3611 8.64097C13.4391 8.40097 13.5641 8.18797 13.7201 7.99997L13.9081 7.80197L14.0431 7.64097L14.1211 7.56297C14.1991 7.47997 14.2151 7.34897 14.1471 7.23997C14.0791 7.10497 14.0431 6.97397 14.0691 6.83897L14.0951 6.65097C14.1371 6.38497 14.2301 6.11997 14.4021 5.90597L14.4541 5.85397C14.6521 5.58797 14.9071 5.41097 15.1991 5.31797L15.5641 5.18797C15.7201 5.13597 15.8301 4.95897 15.8301 4.78697C15.8301 4.57297 15.8981 4.38597 16.0171 4.21397L16.0801 4.14597C16.2151 3.92197 16.3771 3.69297 16.4811 3.45297L16.5751 3.28097C16.6011 3.23897 16.6171 3.18697 16.6171 3.14597C16.6171 2.92197 16.4821 2.71897 16.2681 2.70797L15.6851 2.66597C15.3521 2.63997 15.0181 2.66597 14.6951 2.66597L13.5651 2.80097C13.3881 2.80097 13.2581 2.93097 13.2421 3.11897C13.2421 3.30697 13.1071 3.46797 12.9501 3.51997L12.4711 3.64997L12.3361 3.69197L11.9351 3.82697C11.6431 3.92097 11.4041 4.13397 11.2681 4.42597L11.1641 4.59797C11.0291 4.89497 10.8051 5.13397 10.5231 5.30597C10.2571 5.47797 10.1221 5.75897 10.0961 6.07697V6.21197C10.0701 6.47797 9.9871 6.74297 9.8301 6.93097L9.7621 7.03997C9.6531 7.16997 9.6271 7.34697 9.6941 7.49297C9.7621 7.64897 9.8031 7.82597 9.7881 7.99797V8.70597C9.7881 8.89397 9.6531 9.04997 9.5221 9.10197C9.3341 9.16997 9.2151 9.31597 9.1631 9.50297L9.0951 9.76897C9.0431 10.04 9.1371 10.305 9.3611 10.467C9.5751 10.623 9.7101 10.863 9.7621 11.16V11.4C9.8041 11.666 9.9501 11.931 10.1891 12.067C10.4291 12.228 10.6161 12.468 10.7201 12.734L10.7881 12.948C10.8971 13.24 11.1371 13.412 11.4031 13.438H11.4811C11.7211 13.438 11.9341 13.573 12.0701 13.787C12.2001 14.001 12.4141 14.146 12.6531 14.188L13.0281 14.292C13.2571 14.36 13.4711 14.48 13.6431 14.651L13.6691 14.682C13.8041 14.786 14.0181 14.771 14.1381 14.625L14.2321 14.521L14.2141 14.505ZM15.7341 13.281C15.8641 13.359 16.0001 13.317 16.0521 13.198L16.0941 13.135C16.1881 12.947 16.3081 12.76 16.4381 12.599L16.7091 12.198C16.7451 12.198 16.7611 12.172 16.7721 12.146L17.0951 11.719C17.2301 11.589 17.3871 11.495 17.5741 11.495C17.7461 11.495 17.8971 11.401 17.9751 11.229C18.0271 11.041 18.1051 10.864 18.2671 10.719L18.3351 10.641C18.4701 10.506 18.6011 10.438 18.7361 10.375C18.9081 10.349 19.0691 10.318 19.2311 10.318H19.6271C19.7881 10.318 19.9241 10.255 20.0021 10.12C20.0801 9.98497 20.2001 9.89597 20.3351 9.82797L20.4701 9.77097C20.6841 9.68197 20.9231 9.61497 21.1631 9.58897L21.4291 9.56297C21.5901 9.56297 21.7621 9.56297 21.9241 9.65197C22.0541 9.74597 22.2311 9.73497 22.3621 9.62597L22.4561 9.57397C22.6541 9.43897 22.8831 9.33397 23.1231 9.30797H23.1491C23.4151 9.25597 23.6541 9.25597 23.9251 9.26597H24.0551C24.3211 9.30797 24.5501 9.40097 24.7221 9.59897L24.7641 9.65097C24.8991 9.78597 25.1081 9.89597 25.2951 9.89597H25.5241C25.5921 9.89597 25.6541 9.86497 25.6961 9.80197C25.7381 9.75997 25.8051 9.71897 25.8681 9.71897H26.0031C26.1911 9.71897 26.3621 9.77097 26.5341 9.82797L26.7631 9.92197C26.9771 9.98497 27.2011 10.052 27.4301 10.078H27.5911C27.6951 10.078 27.7631 10.015 27.7631 9.92197C27.7631 9.78697 27.7371 9.65097 27.6691 9.54697L27.5751 9.33297C27.4711 9.16097 27.3871 8.97397 27.3091 8.80197L27.2831 8.73397C27.2151 8.59897 27.2151 8.46797 27.2831 8.33297V8.26497C27.3091 8.16097 27.2571 8.04097 27.1481 7.99897H27.0441C26.8301 7.93097 26.6431 7.81097 26.5081 7.63997L26.3781 7.50497C26.2431 7.37497 26.1641 7.17197 26.1071 6.97397C26.0441 6.80197 25.8991 6.66697 25.7111 6.66697H25.1481C24.9501 6.64097 24.7731 6.53197 24.6531 6.37497L24.6011 6.30697C24.5071 6.17197 24.4291 6.01497 24.3771 5.85397C24.3091 5.71897 24.1631 5.63997 24.0281 5.68197L23.8671 5.73397C23.6011 5.82797 23.3361 5.86397 23.0701 5.83797L22.8561 5.81197C22.6271 5.81197 22.4131 5.71797 22.2411 5.58797L22.1061 5.49397C22.0021 5.41097 21.8981 5.35897 21.7731 5.30597C21.6431 5.25397 21.5331 5.27997 21.4551 5.37397L21.3871 5.45197C21.2571 5.58697 21.0691 5.69197 20.8821 5.71797L20.1631 5.75997C20.0281 5.75997 19.8971 5.82797 19.8041 5.92097C19.6951 6.01497 19.5751 6.07697 19.4391 6.10297H19.4131C19.2831 6.10297 19.1471 6.19697 19.0171 6.29097V6.31697C18.8821 6.45197 18.7101 6.51997 18.5331 6.51997L18.4811 6.54597C18.3201 6.54597 18.1631 6.54597 18.0021 6.58797H17.8411C17.6171 6.62397 17.4401 6.81197 17.3881 7.05197L17.3361 7.35897C17.2941 7.57297 17.2011 7.75997 17.0701 7.93197C16.9351 8.09297 16.7731 8.19797 16.5751 8.19797H16.3511C16.2161 8.22897 16.0801 8.37497 16.1061 8.53097C16.1371 8.75997 16.1061 8.95797 16.0701 9.16097L16.0181 9.38497C15.9611 9.58797 15.8301 9.74397 15.6531 9.81197L15.5751 9.85397H15.5491C15.4711 9.90597 15.4141 10.026 15.4811 10.12C15.5641 10.255 15.5901 10.386 15.5751 10.521L15.5331 10.948C15.5331 11.104 15.4701 11.255 15.4031 11.386C15.3201 11.521 15.3201 11.652 15.3771 11.787L15.5071 12.079C15.5751 12.214 15.5901 12.35 15.5491 12.506C15.5071 12.641 15.4811 12.772 15.4971 12.907C15.4971 13.042 15.5751 13.173 15.6851 13.23L15.7341 13.281ZM26.2661 22.922C26.4011 23.052 26.5991 23.104 26.7611 23L27.0271 22.828C27.1621 22.734 27.2671 22.599 27.3191 22.427V22.401L27.4541 22L27.5321 21.865L27.5891 21.735L27.6411 21.641C27.6931 21.532 27.7711 21.453 27.9071 21.412L27.9591 21.386C28.0681 21.36 28.1361 21.256 28.1361 21.146C28.1361 21.016 28.1991 20.906 28.2661 20.813L28.3751 20.719L28.6411 20.375V20.349C28.7191 20.24 28.7711 20.12 28.8021 19.984C28.8281 19.854 28.8021 19.718 28.7451 19.588L28.7191 19.531C28.6671 19.401 28.6411 19.307 28.6251 19.187L28.5891 18.812L28.5471 18.411C28.5471 18.281 28.5991 18.145 28.6821 18.015C28.7711 17.906 28.8381 17.77 28.8961 17.64V17.588L28.9221 17.562C28.9481 17.427 28.8801 17.291 28.7611 17.291C28.6261 17.228 28.4951 17.119 28.4541 16.958L28.4121 16.88C28.3491 16.64 28.3081 16.401 28.3081 16.161L28.3341 15.494V15.452C28.3341 15.228 28.1461 15.051 27.9331 15.051H27.9071C27.6411 15.051 27.4281 14.973 27.2401 14.785L27.1361 14.65L26.8651 14.348L26.5211 13.947C26.3861 13.759 26.2551 13.598 26.0781 13.437C25.9481 13.307 25.7451 13.171 25.5471 13.145L25.2811 13.103C25.1461 13.077 24.9741 13.014 24.8281 12.921C24.7191 12.838 24.5621 12.864 24.4531 12.973L24.2811 13.161L24.1981 13.213C24.1041 13.239 24.0161 13.187 23.9741 13.078C23.9221 12.922 23.9221 12.734 24.0001 12.573V12.495C24.0001 12.401 23.9221 12.334 23.8391 12.36H23.6251C23.3851 12.36 23.1461 12.334 22.9221 12.23L22.7871 12.173C22.6521 12.105 22.4951 12.069 22.3491 12.069C22.2141 12.069 22.0781 12.095 21.9481 12.173L21.8961 12.215C21.7351 12.319 21.5471 12.376 21.3601 12.387H20.9221C20.7191 12.387 20.5211 12.455 20.3861 12.564C20.2141 12.668 20.0271 12.736 19.8291 12.772L19.4701 12.829C19.3091 12.865 19.1371 12.933 18.9861 13.053C18.8561 13.188 18.6681 13.267 18.4961 13.319L18.4281 13.35C18.2141 13.413 18.0271 13.548 17.8971 13.746L17.7361 13.907C17.6421 14.042 17.6421 14.199 17.7361 14.334C17.8141 14.469 17.9761 14.506 18.1371 14.469L18.3351 14.386C18.4391 14.35 18.5641 14.386 18.6531 14.438C18.7361 14.506 18.8561 14.547 18.9761 14.532L19.3091 14.496C19.4971 14.496 19.6841 14.496 19.8661 14.548C20.0691 14.616 20.2411 14.683 20.4021 14.814C20.5631 14.949 20.7351 15.002 20.9331 15.028C21.1361 15.054 21.3341 15.096 21.5221 15.163L21.6521 15.189C21.7871 15.231 21.8971 15.319 21.9751 15.455C22.0431 15.564 22.1051 15.721 22.1051 15.856V15.898C22.1051 16.054 22.2401 16.164 22.3761 16.164H22.4541C22.6681 16.164 22.8971 16.19 23.1211 16.258L23.2151 16.294C23.3501 16.351 23.4811 16.429 23.5741 16.565C23.6831 16.695 23.7461 16.831 23.7881 16.961L23.8301 17.149C23.8661 17.352 23.8821 17.55 23.8821 17.764V17.832C23.8821 17.962 23.9761 18.098 24.1221 18.15C24.2571 18.176 24.4141 18.233 24.5651 18.311L24.6281 18.337C24.8051 18.441 24.9771 18.577 25.1071 18.738L25.1751 18.832C25.3521 19.03 25.4411 19.285 25.4411 19.535V19.629C25.4411 19.832 25.4051 20.03 25.3371 20.218C25.2851 20.379 25.3371 20.567 25.5091 20.619L25.6031 20.687C25.8061 20.765 25.9781 20.911 26.1081 21.083C26.2431 21.286 26.2961 21.51 26.2961 21.75V22.151C26.2701 22.286 26.2331 22.391 26.1661 22.484C26.0991 22.577 26.0981 22.713 26.1661 22.807L26.2441 22.937L26.2661 22.922ZM17.7341 16.094H17.7081C17.6511 16.094 17.6251 16.162 17.6401 16.229L17.6921 16.495C17.7441 16.709 17.7701 16.922 17.8011 17.136C17.8271 17.35 17.9311 17.532 18.0931 17.667H18.1451C18.3481 17.828 18.4681 18.068 18.4781 18.308V18.975C18.4521 19.105 18.4781 19.241 18.5611 19.35L18.6241 19.413C18.7591 19.574 18.8121 19.762 18.8271 19.949L18.8631 20.683C18.8631 20.855 18.7591 21.001 18.5971 21.027L18.4671 21.053C18.3731 21.053 18.3321 21.162 18.3321 21.256C18.3321 21.36 18.3741 21.48 18.4101 21.589V21.615C18.4521 21.745 18.4671 21.881 18.4521 22.016L18.4001 22.375C18.3481 22.641 18.2651 22.88 18.1341 23.12L18.0401 23.281C17.9721 23.411 17.8791 23.495 17.7691 23.547C17.6391 23.599 17.5451 23.708 17.5031 23.839L17.3991 24.318C17.3311 24.589 17.2111 24.854 17.0501 25.12H17.0241C16.8631 25.334 16.6651 25.521 16.4251 25.651L16.2641 25.76L15.8631 25.958C15.7331 26.015 15.6491 26.135 15.6231 26.281L15.5601 26.719C15.5181 26.985 15.4251 27.214 15.2371 27.386L15.0651 27.589L14.8621 27.787L14.6641 28.001C14.5031 28.189 14.2631 28.267 13.9971 28.23L13.5181 28.136L13.0751 28.079H12.9551C12.9031 28.136 12.8921 28.214 12.9291 28.293C13.0231 28.454 13.1691 28.564 13.3301 28.564L13.6221 28.616C13.7571 28.616 13.9191 28.684 14.0491 28.746C14.1841 28.84 14.3151 28.907 14.4761 28.949H14.5021C14.6791 29.017 14.8611 29.027 15.0381 29.017L15.2361 28.986C15.4651 28.96 15.6791 28.986 15.8611 29.069L16.0221 29.121C16.0901 29.147 16.1941 29.121 16.2621 29.053C16.3451 28.975 16.4231 28.923 16.5281 28.881L16.6371 28.855C16.8091 28.803 16.9811 28.772 17.1681 28.772H17.2771C17.4331 28.772 17.5841 28.803 17.7151 28.881L17.7671 28.907C17.8611 28.949 17.9701 28.907 18.0381 28.829C18.0741 28.735 18.1681 28.641 18.2621 28.563L18.5951 28.334L18.8091 28.199L18.9181 28.136C19.0481 28.042 19.2361 28.001 19.3971 28.001L19.8761 27.959C20.0641 27.933 20.2251 27.803 20.2771 27.615C20.3291 27.412 20.4071 27.214 20.5431 27.042C20.6781 26.865 20.8091 26.719 20.9441 26.589C21.1161 26.454 21.2881 26.386 21.4751 26.375H21.5841C21.7981 26.333 21.9541 26.135 21.9431 25.922V25.026C21.9691 24.896 22.0211 24.719 22.0991 24.588L22.3701 24.187L22.4741 24.052C22.5571 23.984 22.6091 23.896 22.7031 23.786L22.8331 23.614C22.9161 23.479 22.9161 23.307 22.8071 23.187C22.6771 23.052 22.6091 22.864 22.5831 22.682V22.625C22.5571 22.411 22.5571 22.187 22.6191 21.958V21.895C22.6871 21.718 22.7801 21.546 22.8901 21.385C22.9941 21.255 22.9791 21.067 22.8481 20.958L22.6191 20.76C22.4311 20.599 22.3271 20.359 22.3011 20.119L22.2751 19.853C22.2751 19.77 22.2751 19.681 22.2491 19.587L22.2231 19.384C22.1921 19.16 22.0621 18.983 21.8741 18.853L21.7801 18.827C21.6451 18.744 21.5141 18.624 21.4051 18.468C21.3011 18.333 21.2491 18.145 21.2071 17.958L21.1651 17.734C21.1651 17.651 21.1131 17.599 21.0351 17.562L20.3941 17.359C20.2591 17.333 20.1281 17.229 20.0351 17.135H20.0091C19.9261 17.026 19.7951 17.026 19.7121 17.104L19.5821 17.239C19.5561 17.281 19.5251 17.291 19.4881 17.281C19.4051 17.281 19.3531 17.213 19.3791 17.146C19.4051 16.932 19.3271 16.719 19.1551 16.589L18.9781 16.454L18.5821 16.188C18.4731 16.146 18.3111 16.188 18.2591 16.318L18.2071 16.401C18.2071 16.427 18.1651 16.437 18.1551 16.453C18.0981 16.453 18.0201 16.453 18.0201 16.385L17.9781 16.317C17.9421 16.239 17.8481 16.187 17.7641 16.161L17.7341 16.094ZM16.1351 17.427L16.0671 17.359C15.9991 17.307 15.9321 17.317 15.8641 17.385C15.7701 17.546 15.6921 17.718 15.6501 17.895V17.921C15.6141 18.093 15.4521 18.213 15.2911 18.187H15.1351C14.9471 18.187 14.8021 18.348 14.8021 18.531C14.8021 18.771 14.7191 19.015 14.5731 19.198L14.4951 19.281C14.3601 19.453 14.1621 19.573 13.9591 19.64L13.8551 19.666C13.7201 19.708 13.6151 19.801 13.5891 19.958C13.5891 20.093 13.5061 20.229 13.4011 20.333L13.2661 20.437C13.1051 20.614 12.8651 20.708 12.6251 20.734L11.9581 20.802C11.7441 20.802 11.5621 20.932 11.4271 21.135C11.2921 21.333 11.0941 21.468 10.8961 21.494L10.5991 21.52C10.3851 21.546 10.1611 21.546 9.9321 21.494L9.8021 21.468L9.4371 21.374C9.3071 21.332 9.1971 21.374 9.1191 21.468L8.9841 21.64C8.8121 21.838 8.5621 21.932 8.3171 21.906L7.4521 21.802C7.3171 21.802 7.2121 21.734 7.0931 21.667C6.9581 21.589 6.8641 21.495 6.7701 21.401L6.4371 21C6.4011 20.974 6.3331 20.958 6.2651 20.974L6.0771 21.052L5.3321 21.24C5.1971 21.282 5.0251 21.24 4.8941 21.162C4.7591 21.053 4.5971 21.027 4.4361 21.027H4.2641C4.1031 21.069 3.9981 21.241 4.0501 21.402L4.1021 21.668C4.1441 21.803 4.1331 21.96 4.0661 22.095C3.9991 22.23 4.0141 22.361 4.1021 22.496L4.1851 22.6C4.2891 22.761 4.4511 22.897 4.5861 23.027C4.7161 23.162 4.8521 23.293 4.9561 23.47L5.1591 23.829C5.2631 24.017 5.4251 24.121 5.6381 24.121C5.8361 24.121 6.0391 24.189 6.1951 24.319L6.5961 24.694C6.7051 24.788 6.8621 24.803 6.9711 24.72L7.0391 24.694C7.1171 24.694 7.1691 24.746 7.1691 24.829V24.897C7.1691 25.069 7.3041 25.23 7.4761 25.293L8.0751 25.428C8.2891 25.496 8.5021 25.563 8.7051 25.694H8.8091C8.9181 25.694 9.0121 25.6 8.9971 25.48V25.016C8.9971 24.881 9.0491 24.745 9.1581 24.693L9.2261 24.667C9.2891 24.693 9.3561 24.745 9.3301 24.802V25.026C9.3301 25.198 9.3821 25.359 9.5021 25.479C9.6371 25.614 9.8091 25.64 9.9551 25.588C10.1161 25.52 10.2781 25.505 10.4501 25.52L10.9451 25.546C11.1851 25.572 11.4091 25.546 11.6121 25.452C11.8521 25.374 12.0501 25.264 12.2371 25.119L12.3151 25.067L12.7161 24.708C12.8511 24.573 13.0231 24.505 13.1851 24.505H13.7161C13.9821 24.479 14.2261 24.239 14.2521 23.974L14.3041 23.708C14.3041 23.531 14.3821 23.375 14.5021 23.239C14.6371 23.104 14.7681 23.025 14.9031 22.973L15.0641 22.905C15.2881 22.811 15.4651 22.613 15.5431 22.374L15.6211 22.051C15.6891 21.785 15.8241 21.52 16.0221 21.348L16.0481 21.317C16.2091 21.187 16.2361 20.921 16.1311 20.734L16.0891 20.64C15.9951 20.505 15.9801 20.307 16.0471 20.135C16.1151 19.947 16.1821 19.786 16.2871 19.625L16.4221 19.437C16.4741 19.333 16.4741 19.171 16.3961 19.078C16.3131 18.974 16.2611 18.838 16.2611 18.708L16.2351 18.52V18.067C16.2611 17.932 16.2351 17.76 16.1931 17.624L16.1411 17.468L16.1351 17.427ZM14.2291 16.411V16.375C14.2291 16.24 14.1461 16.161 14.0411 16.161H13.6921C13.5621 16.187 13.4261 16.187 13.3171 16.161H12.7181C12.4111 16.161 12.1191 16.104 11.8271 16.026L11.5041 15.948L11.2381 15.865L10.6391 15.667C10.3161 15.573 10.0761 15.36 9.9311 15.068L9.8631 14.933C9.7691 14.735 9.5711 14.626 9.3731 14.667C9.1441 14.667 8.9201 14.667 8.7061 14.563L8.5451 14.495C8.2381 14.36 8.0141 14.094 8.0141 13.735L7.9571 13.376C7.9211 13.188 7.8011 13.017 7.6391 12.949C7.4511 12.866 7.2801 12.761 7.1031 12.642L7.0401 12.6C6.8371 12.439 6.6651 12.23 6.5711 11.975L6.5451 11.897C6.4771 11.683 6.4671 11.454 6.5191 11.23L6.5451 11.147C6.5971 10.975 6.6131 10.803 6.6131 10.616C6.6131 10.455 6.5451 10.293 6.4251 10.173L6.2371 10.001C6.0231 9.82897 5.8931 9.57397 5.8781 9.29297C5.8521 9.00097 5.8521 8.71997 5.9041 8.43897V8.36097C5.9041 8.19997 5.7691 8.09497 5.6381 8.09497H5.5961C5.4241 8.09497 5.2781 8.19897 5.1951 8.36097C5.1321 8.54897 5.0231 8.69397 4.9031 8.83997L4.8511 8.90797L4.4501 9.30897C4.3151 9.43897 4.2361 9.64197 4.2101 9.83997C4.1841 10.043 4.1321 10.241 4.0491 10.429L4.0231 10.497C3.9551 10.653 3.8511 10.804 3.7161 10.898C3.5861 11.002 3.4921 11.164 3.4921 11.32L3.4661 11.935C3.4661 12.201 3.4241 12.471 3.3311 12.737L3.3051 12.841C3.2371 13.018 3.3051 13.2 3.4661 13.284L4.0231 13.524L4.0751 13.55C4.1171 13.55 4.1321 13.576 4.1431 13.618C4.1851 13.67 4.1431 13.748 4.1011 13.748L3.9711 13.816C3.8931 13.842 3.8361 13.925 3.8101 14.019L3.7841 14.149V14.175L3.6491 14.925C3.6231 15.029 3.6231 15.149 3.6231 15.269C3.6231 15.378 3.6911 15.472 3.7841 15.509L4.0761 15.644C4.2111 15.722 4.3731 15.816 4.4771 15.91L4.6121 16.019C4.6481 16.071 4.7161 16.123 4.7681 16.149L4.8251 16.201C4.9191 16.284 4.9811 16.389 5.0131 16.508L5.1431 17.107C5.1431 17.268 5.2781 17.404 5.4091 17.44L5.6231 17.508C5.6231 17.508 5.6651 17.508 5.6911 17.534L5.9571 17.617C6.1711 17.685 6.3581 17.805 6.5201 17.961C6.6811 18.096 6.8381 18.268 6.9731 18.456L7.0251 18.508C7.1341 18.643 7.2911 18.711 7.4521 18.669C7.6131 18.627 7.7851 18.617 7.9571 18.617H8.1601C8.2901 18.617 8.4671 18.653 8.6131 18.747C8.7431 18.83 8.9201 18.882 9.0771 18.95H9.1191C9.2801 19.018 9.4521 18.986 9.5881 18.898C9.7181 18.789 9.8951 18.737 10.0671 18.737L10.6921 18.773C10.8271 18.773 10.9581 18.747 11.0251 18.643H11.0511L11.2801 18.429L11.3481 18.361C11.4521 18.231 11.6141 18.173 11.7701 18.163H12.3741C12.5301 18.163 12.6811 18.028 12.7441 17.897C12.8121 17.762 12.9471 17.652 13.1031 17.626L13.3741 17.574C13.4781 17.574 13.5721 17.48 13.6141 17.36C13.6501 17.23 13.7181 17.12 13.8121 17.042L14.0261 16.828C14.1611 16.693 14.2291 16.562 14.2551 16.401L14.2291 16.411Z" fill="black"/>
</g>
<defs>
<clipPath id="clip0">
<rect width="32" height="32" fill="white"/>
</clipPath>
</defs>
</svg>
