<svg width="24" height="24" viewBox="0 0 24 24" fill="none" xmlns="http://www.w3.org/2000/svg">
<rect width="24" height="24" fill="white"/>
<path d="M5.883 18.653C5.583 18.453 5.325 18.198 5.023 17.837C4.86624 17.6452 4.7109 17.4522 4.557 17.258C4.094 16.683 3.802 16.418 3.5 16.309C3.2503 16.2194 3.04643 16.0342 2.93326 15.7943C2.82008 15.5543 2.80686 15.2792 2.8965 15.0295C2.98614 14.7798 3.17131 14.576 3.41126 14.4628C3.65121 14.3496 3.9263 14.3364 4.176 14.426C4.928 14.696 5.437 15.161 6.123 16.014C6.029 15.897 6.463 16.441 6.556 16.553C6.746 16.78 6.886 16.918 6.996 16.991C7.2 17.128 7.583 17.187 8.146 17.131C8.169 16.749 8.24 16.378 8.348 16.036C5.38 15.31 3.7 13.396 3.7 9.64002C3.7 8.40002 4.07 7.28402 4.758 6.34802C4.54 5.45402 4.573 4.37302 5.06 3.15602C5.11527 3.01836 5.20047 2.89471 5.30943 2.79405C5.4184 2.69339 5.54839 2.61823 5.69 2.57402C5.771 2.55002 5.817 2.53902 5.898 2.52702C6.701 2.40402 7.835 2.69702 9.313 3.62302C10.1938 3.41711 11.0955 3.31375 12 3.31502C12.912 3.31502 13.818 3.41902 14.684 3.62302C16.161 2.69002 17.297 2.39702 18.106 2.52702C18.191 2.54002 18.263 2.55702 18.324 2.57702C18.4628 2.6228 18.5899 2.69846 18.6964 2.79867C18.8028 2.89887 18.886 3.0212 18.94 3.15702C19.427 4.37302 19.46 5.45402 19.242 6.34702C19.933 7.28302 20.3 8.39202 20.3 9.64002C20.3 13.397 18.626 15.305 15.658 16.032C15.783 16.447 15.848 16.911 15.848 17.412C15.8481 18.3174 15.8441 19.2227 15.836 20.128C16.0606 20.177 16.2614 20.3019 16.4047 20.4816C16.548 20.6613 16.6251 20.8849 16.6228 21.1147C16.6206 21.3446 16.5392 21.5667 16.3925 21.7436C16.2457 21.9205 16.0425 22.0414 15.817 22.086C14.678 22.314 13.834 21.554 13.834 20.561L13.836 20.115L13.841 19.41C13.846 18.702 13.848 18.072 13.848 17.412C13.848 16.715 13.665 16.26 13.423 16.052C12.762 15.482 13.097 14.397 13.963 14.3C16.93 13.967 18.3 12.818 18.3 9.64002C18.3 8.68502 17.988 7.89602 17.387 7.23602C17.2604 7.09727 17.1754 6.92565 17.1418 6.74083C17.1082 6.55602 17.1273 6.36547 17.197 6.19102C17.363 5.77702 17.434 5.23402 17.293 4.57702L17.283 4.58002C16.792 4.71902 16.173 5.02002 15.425 5.52902C15.3044 5.61088 15.1673 5.66537 15.0234 5.68869C14.8795 5.71201 14.7323 5.70359 14.592 5.66402C13.7479 5.43031 12.8759 5.31289 12 5.31502C11.11 5.31502 10.228 5.43402 9.408 5.66502C9.26822 5.70428 9.12157 5.71263 8.97823 5.68949C8.8349 5.66635 8.69832 5.61227 8.578 5.53102C7.826 5.02402 7.204 4.72402 6.71 4.58402C6.566 5.23702 6.637 5.77802 6.802 6.19102C6.87181 6.36538 6.8911 6.55587 6.85768 6.74068C6.82425 6.9255 6.73945 7.09716 6.613 7.23602C6.016 7.89002 5.7 8.69402 5.7 9.64002C5.7 12.812 7.071 13.968 10.022 14.3C10.887 14.397 11.223 15.477 10.566 16.048C10.374 16.216 10.137 16.78 10.137 17.412V20.562C10.137 21.548 9.302 22.287 8.177 22.09C7.94876 22.0499 7.74153 21.9319 7.59072 21.7559C7.4399 21.58 7.35486 21.3572 7.35014 21.1255C7.34542 20.8938 7.4213 20.6677 7.56482 20.4857C7.70834 20.3038 7.91059 20.1774 8.137 20.128V19.138C7.227 19.199 6.475 19.05 5.883 18.653Z" fill="black"/>
</svg>
